<?xml version="1.0" standalone="no"?>
<svg xmlns="http://www.w3.org/2000/svg" viewBox="0 0 133.464 36" width="133.464" height="36"><g fill="#7fa9b9" color="#7fa9b9" transform="translate(0 3.9999999999999982) scale(0.2800001)"><svg width="100.0" height="100.0" x="0.0" y="0.0" viewBox="0 0 100 100"><g><rect x="11.797" y="80.477" width="76.405" height="3.465"></rect><path d="M87.674,78.336V50.03H12.326v28.305H87.674z M73.13,56.632c0-1.439,1.166-2.605,2.605-2.605   c1.439,0,2.605,1.166,2.605,2.605v15.007c0,1.439-1.166,2.605-2.605,2.605c-1.439,0-2.605-1.166-2.605-2.605V56.632z    M59.672,56.632c0-1.439,1.166-2.605,2.605-2.605c1.439,0,2.605,1.166,2.605,2.605v15.007c0,1.439-1.166,2.605-2.605,2.605   c-1.439,0-2.605-1.166-2.605-2.605V56.632z M46.215,56.632c0-1.439,1.166-2.605,2.605-2.605c1.439,0,2.606,1.166,2.606,2.605   v15.007c0,1.439-1.166,2.605-2.606,2.605c-1.439,0-2.605-1.166-2.605-2.605V56.632z M32.757,56.632   c0-1.439,1.166-2.605,2.605-2.605s2.605,1.166,2.605,2.605v15.007c0,1.439-1.166,2.605-2.605,2.605s-2.605-1.166-2.605-2.605   V56.632z M19.299,56.632c0-1.439,1.166-2.605,2.605-2.605c1.439,0,2.605,1.166,2.605,2.605v15.007c0,1.439-1.166,2.605-2.605,2.605   c-1.439,0-2.605-1.166-2.605-2.605V56.632z"></path><path d="M51.262,36.172v3.043c1.157-0.226,1.703-0.886,1.703-1.613C52.965,36.852,52.259,36.489,51.262,36.172z"></path><path d="M47.558,30.854c0,0.659,0.635,1.003,1.567,1.298V29.4C48.125,29.538,47.558,30.084,47.558,30.854z"></path><path d="M50,16.058L5,47.35h90L50,16.058z M51.262,42.1v2.046h-2.137V42.1c-2.385-0.203-4.136-1.112-5.384-2.363l1.773-2.523   c0.837,0.888,2.089,1.683,3.611,1.957V35.65c-2.339-0.568-4.885-1.457-4.885-4.546c0-2.295,1.819-4.248,4.885-4.566v-2.113h2.137   v2.157c1.839,0.203,3.406,0.886,4.635,2.022l-1.796,2.406c-0.818-0.749-1.817-1.224-2.838-1.474v3.136   c2.363,0.589,4.997,1.498,4.997,4.611C56.259,39.805,54.602,41.76,51.262,42.1z"></path></g></svg></g><path fill="#75639e" fill-rule="nonzero" d="M2.16 16.08L2.16 3.12Q2.16 1.90 1.82 1.31Q1.49 0.72 0.48 0.72L0.48 0.72L0 0.72L0 0.24L6.24 0.24Q8.86 0.24 10.79 1.10Q12.72 1.97 12.72 4.44L12.72 4.44Q12.72 5.57 11.95 6.48Q11.18 7.39 9.60 7.92L9.60 7.92Q11.81 8.28 12.68 9.23Q13.56 10.18 13.56 11.76L13.56 11.76Q13.56 14.18 11.65 15.13Q9.74 16.08 6.96 16.08L6.96 16.08L2.16 16.08ZM4.32 7.56L6.60 7.56Q7.58 7.56 8.46 7.19Q9.34 6.82 9.89 6.08Q10.44 5.35 10.44 4.32L10.44 4.32Q10.44 3.24 9.79 2.51Q9.14 1.78 8.15 1.43Q7.15 1.08 6.12 1.08L6.12 1.08Q5.28 1.08 4.32 1.32L4.32 1.32L4.32 7.56ZM6.60 15.24Q8.78 15.24 9.97 14.38Q11.16 13.51 11.16 11.88L11.16 11.88Q11.16 10.25 10.00 9.38Q8.83 8.52 6.60 8.52L6.60 8.52L4.32 8.52L4.32 14.90Q5.47 15.24 6.60 15.24L6.60 15.24ZM18.96 16.32Q18.19 16.32 17.40 16.00Q16.61 15.67 16.04 14.93Q15.48 14.18 15.48 12.96L15.48 12.96Q15.48 11.14 17.17 10.37Q18.86 9.60 21.60 9.60L21.60 9.60L22.32 9.60Q22.32 7.25 21.67 6.38Q21.02 5.52 19.80 5.52L19.80 5.52Q18.72 5.52 18.07 5.98Q17.42 6.43 17.16 7.56L17.16 7.56L16.08 7.56Q16.08 6.74 16.18 6.28Q16.27 5.81 16.68 5.40L16.68 5.40Q17.11 4.97 18.11 4.76Q19.10 4.56 20.28 4.56L20.28 4.56Q22.22 4.56 23.35 5.60Q24.48 6.65 24.48 9.60L24.48 9.60L24.48 16.08L23.28 16.08L22.44 15.00L22.32 15.00Q21.89 15.55 21.05 15.94Q20.21 16.32 18.96 16.32L18.96 16.32ZM20.04 15.24Q20.83 15.24 21.36 14.86Q21.89 14.47 22.32 13.80L22.32 13.80L22.32 10.56L21.60 10.56Q19.82 10.56 18.79 11.22Q17.76 11.88 17.76 12.96L17.76 12.96Q17.76 14.06 18.42 14.65Q19.08 15.24 20.04 15.24L20.04 15.24ZM28.18 16.08L28.18 7.68Q28.18 6.46 27.84 5.87Q27.50 5.28 26.50 5.28L26.50 5.28L26.02 5.28L26.02 4.80L28.18 4.80Q29.06 4.80 29.53 5.04Q30 5.28 30.22 5.76L30.22 5.76L30.34 5.76Q30.84 5.26 31.64 4.91Q32.45 4.56 33.46 4.56L33.46 4.56Q35.26 4.56 36.40 5.52Q37.54 6.48 37.54 8.88L37.54 8.88L37.54 16.08L35.38 16.08L35.38 8.88Q35.38 7.20 34.62 6.42Q33.86 5.64 32.74 5.64L32.74 5.64Q31.46 5.64 30.34 6.91L30.34 6.91L30.34 16.08L28.18 16.08ZM45.50 16.32Q43.78 16.32 42.59 15.54Q41.40 14.76 40.81 13.43Q40.22 12.10 40.22 10.44L40.22 10.44Q40.22 8.78 40.81 7.45Q41.40 6.12 42.59 5.34Q43.78 4.56 45.50 4.56L45.50 4.56Q48.14 4.56 48.98 5.40L48.98 5.40Q49.39 5.81 49.49 6.40Q49.58 6.98 49.58 8.52L49.58 8.52L49.10 8.52Q49.01 7.03 48.17 6.28Q47.33 5.52 45.98 5.52L45.98 5.52Q44.26 5.52 43.38 6.89Q42.50 8.26 42.50 10.44L42.50 10.44Q42.50 12.62 43.38 13.99Q44.26 15.36 45.98 15.36L45.98 15.36Q47.21 15.36 48.00 14.89Q48.79 14.42 49.46 13.44L49.46 13.44L49.94 13.80Q49.15 15.14 48.07 15.73Q46.99 16.32 45.50 16.32L45.50 16.32ZM55.15 16.32Q54.38 16.32 53.59 16.00Q52.80 15.67 52.24 14.93Q51.67 14.18 51.67 12.96L51.67 12.96Q51.67 11.14 53.36 10.37Q55.06 9.60 57.79 9.60L57.79 9.60L58.51 9.60Q58.51 7.25 57.86 6.38Q57.22 5.52 55.99 5.52L55.99 5.52Q54.91 5.52 54.26 5.98Q53.62 6.43 53.35 7.56L53.35 7.56L52.27 7.56Q52.27 6.74 52.37 6.28Q52.46 5.81 52.87 5.40L52.87 5.40Q53.30 4.97 54.30 4.76Q55.30 4.56 56.47 4.56L56.47 4.56Q58.42 4.56 59.54 5.60Q60.67 6.65 60.67 9.60L60.67 9.60L60.67 16.08L59.47 16.08L58.63 15.00L58.51 15.00Q58.08 15.55 57.24 15.94Q56.40 16.32 55.15 16.32L55.15 16.32ZM56.23 15.24Q57.02 15.24 57.55 14.86Q58.08 14.47 58.51 13.80L58.51 13.80L58.51 10.56L57.79 10.56Q56.02 10.56 54.98 11.22Q53.95 11.88 53.95 12.96L53.95 12.96Q53.95 14.06 54.61 14.65Q55.27 15.24 56.23 15.24L56.23 15.24ZM82.30 17.16Q80.57 17.16 79.61 16.63Q78.65 16.10 78.25 14.99Q77.86 13.87 77.86 12.00L77.86 12.00L77.86 2.76L71.86 16.08L71.38 16.08L65.14 2.52L65.14 16.08L64.18 16.08L64.18 0.24L66.46 0.24L72.22 12.72L77.86 0.24L80.02 0.24L80.02 12.00Q80.02 14.23 80.58 15.46Q81.14 16.68 82.30 16.68L82.30 16.68L82.30 17.16ZM90.14 16.32L84.58 3.05Q83.98 1.66 83.45 1.14Q82.92 0.62 81.94 0.53L81.94 0.53L81.94 0.05Q82.06 0.05 82.28 0.02Q82.51 0 82.75 0L82.75 0Q83.95 0 85.06 0.61Q86.16 1.22 86.93 3.05L86.93 3.05L91.03 12.72L92.45 9.43Q93.46 7.10 96.31 0.24L96.31 0.24L97.46 0.24L90.58 16.32L90.14 16.32Z" transform="translate(36, 9.96)"></path></svg>